<?xml version="1.0" encoding="UTF-8" standalone="no"?>
<!-- Created with Inkscape (http://www.inkscape.org/) -->

<svg
   xmlns:dc="http://purl.org/dc/elements/1.1/"
   xmlns:cc="http://creativecommons.org/ns#"
   xmlns:rdf="http://www.w3.org/1999/02/22-rdf-syntax-ns#"
   xmlns:svg="http://www.w3.org/2000/svg"
   xmlns="http://www.w3.org/2000/svg"
   xmlns:sodipodi="http://sodipodi.sourceforge.net/DTD/sodipodi-0.dtd"
   xmlns:inkscape="http://www.inkscape.org/namespaces/inkscape"
   version="1.1"
   id="svg3713"
   width="299"
   height="322"
   viewBox="0 0 299 322"
   sodipodi:docname="logo-svg.svg"
   inkscape:version="0.92.4 (5da689c313, 2019-01-14)">
  <metadata
     id="metadata3719">
    <rdf:RDF>
      <cc:Work
         rdf:about="">
        <dc:format>image/svg+xml</dc:format>
        <dc:type
           rdf:resource="http://purl.org/dc/dcmitype/StillImage" />
        <dc:title></dc:title>
      </cc:Work>
    </rdf:RDF>
  </metadata>
  <defs
     id="defs3717" />
  <sodipodi:namedview
     pagecolor="#ffffff"
     bordercolor="#666666"
     borderopacity="1"
     objecttolerance="10"
     gridtolerance="10"
     guidetolerance="10"
     inkscape:pageopacity="0"
     inkscape:pageshadow="2"
     inkscape:window-width="1366"
     inkscape:window-height="706"
     id="namedview3715"
     showgrid="false"
     inkscape:zoom="1.6677019"
     inkscape:cx="149.5"
     inkscape:cy="138.1688"
     inkscape:window-x="-8"
     inkscape:window-y="-8"
     inkscape:window-maximized="1"
     inkscape:current-layer="svg3713" />
  <g
     id="g3725"
     transform="translate(1.7988816,0.59962791)">
    <path
       style="fill:#fdfcfb"
       d="M 4.4168482e-6,160.40037 V -0.59962606 H 149.5 299 V 160.40037 v 161 H 149.5 4.4168482e-6 Z"
       id="path3735"
       inkscape:connector-curvature="0" />
    <path
       style="fill:#eac9b0"
       d="m 60.000004,302.50236 c -6.703332,-2.3731 -14.935094,-10.60428 -16.787178,-16.78599 -2.986835,-9.96917 -0.516292,-19.91729 6.751116,-27.1847 10.823832,-10.82383 26.600292,-10.73904 37.461977,0.20135 5.345367,5.3841 8.834954,12.80648 6.920813,14.72062 -0.606282,0.60628 -8.171815,0.88677 -19.41997,0.71997 -17.669011,-0.262 -18.426758,-0.35548 -18.426758,-2.27324 0,-1.89956 0.7533,-2.01305 15,-2.2599 8.25,-0.14294 15.581906,-0.47377 16.293124,-0.73516 2.842111,-1.04457 -3.950088,-8.71637 -10.293124,-11.6261 -9.210462,-4.22511 -20.885321,-0.70233 -27.022642,8.15383 -4.132142,5.96268 -4.683463,15.50076 -1.265213,21.88867 6.394972,11.9507 20.802553,15.47841 32.249436,7.89631 3.548457,-2.3504 4.944363,-2.81171 5.829565,-1.9265 1.818122,1.81812 -0.284647,4.24742 -6.389859,7.38212 -7.268612,3.73205 -13.888803,4.31127 -20.901287,1.82872 z m 65.331976,0.99289 c -5.05722,-1.29103 -11.78419,-5.6879 -14.84827,-9.70512 -3.87051,-5.07451 -5.38973,-9.79991 -5.43005,-16.88976 -0.0577,-10.1511 5.49011,-18.97878 15.20984,-24.20176 4.1475,-2.2287 17.58829,-2.48962 20.12207,-0.39062 2.89463,2.39793 0.18868,3.58615 -7.37139,3.2369 -5.99531,-0.27697 -7.59104,0.0446 -11.92455,2.40321 -13.76616,7.49249 -15.509,26.36161 -3.36049,36.38283 9.02623,7.44567 21.04216,6.71243 29.28974,-1.78731 6.51877,-6.71809 6.98112,-9.13214 6.98112,-36.45025 0,-23.23352 0.46243,-26.63057 3.24618,-23.84682 0.70434,0.70434 1.07718,9.61857 1.08727,25.99624 l 0.0154,24.92433 -2.7255,5.57072 c -2.89717,5.9216 -6.52315,9.55046 -12.68284,12.69289 -4.37027,2.22955 -12.99905,3.24123 -17.6085,2.06452 z m 85.48857,-0.48987 c -11.47651,-3.0902 -19.3982,-13.85295 -19.21403,-26.10501 0.10917,-7.26271 1.96955,-11.91812 6.9781,-17.46198 9.29515,-10.28862 22.85676,-11.81752 34.77858,-3.92084 5.34852,3.54272 10.82272,11.90176 10.40138,15.88282 l -0.26458,2.5 H 225 c -17.83333,0 -18.5,-0.0721 -18.5,-2 0,-1.90369 0.75846,-2.01326 15.75,-2.27539 17.62892,-0.30825 18.05575,-0.52891 12.73825,-6.58521 -7.20623,-8.20744 -19.73856,-10.00511 -28.2155,-4.04729 -12.0948,8.50054 -14.08864,22.68551 -4.6309,32.94595 7.73058,8.38669 19.61628,9.83689 28.6182,3.49175 C 235.0801,292.38512 237,292.22461 237,294.9085 c 0,2.0944 -6.30398,6.47813 -11.61384,8.07617 -5.61659,1.69034 -8.35042,1.69423 -14.56561,0.0207 z M 9.9465885,301.30056 c -1.8368792,-3.43224 -0.754503,-29.26196 1.4415155,-34.40019 3.403357,-7.96315 14.643244,-16.46424 21.802883,-16.49023 5.766628,-0.0209 4.257898,4.33115 -1.844789,5.32148 -5.112086,0.82957 -11.012979,5.24649 -14.159419,10.59857 -2.534897,4.31184 -2.715039,5.47007 -3.186775,20.48965 -0.507726,16.16545 -1.415732,19.40928 -4.0534155,14.48072 z M 174.0677,301.52688 c -1.30748,-2.44307 -1.44677,-46.97948 -0.15331,-49.02223 0.49065,-0.77488 1.60354,-1.11951 2.50191,-0.77477 1.44159,0.55319 1.58899,3.36957 1.35092,25.81288 -0.19402,18.29085 -0.5911,25.29977 -1.44952,25.58554 -0.65026,0.21648 -1.66276,-0.50416 -2.25,-1.60142 z m 83.10851,0.6497 C 256.38565,301.38602 256,296.37014 256,286.87851 c 0,-17.50862 1.25869,-21.9119 8.19479,-28.66787 C 271.17254,251.4141 283,248.00986 283,252.79803 c 0,0.90959 -2.07275,2.06299 -5.49554,3.05802 -6.52447,1.89671 -12.12527,6.50137 -14.63948,12.03574 -1.49162,3.28342 -1.82503,6.65475 -1.84302,18.63614 -0.0164,10.89518 -0.35974,14.90788 -1.34575,15.7262 -0.9667,0.80229 -1.64108,0.78137 -2.5,-0.0776 z m -83.56922,-60.358 c -0.88977,-2.31871 -0.71204,-7.70394 0.3074,-9.31393 0.48607,-0.76764 1.60418,-1.11926 2.48469,-0.78138 1.2009,0.46083 1.60092,1.99644 1.60092,6.14572 0,4.76051 -0.26382,5.53138 -1.89301,5.53138 -1.04116,0 -2.16616,-0.7118 -2.5,-1.58179 z M 73.065705,202.97953 c -0.888093,-1.07008 -1.091551,-18.41212 -0.824181,-70.25 0.396531,-76.879663 0.08757,-73.320353 7.710578,-88.829156 C 87.106325,29.345294 100.17072,16.606785 115.5,9.2392099 126.72422,3.8446141 135.81847,2.113791 150,2.6731497 c 19.58091,0.7723251 34.08107,6.9599092 47.44218,20.2447673 12.77534,12.70243 19.3376,25.129571 22.19225,42.026059 2.79445,16.540233 -0.32331,33.380912 -8.87829,47.956394 -6.06913,10.34024 -19.22178,22.95948 -29.50614,28.30951 -4.5375,2.36046 -8.23767,4.83146 -8.22259,5.49111 0.0151,0.65966 8.79999,13.31963 19.52203,28.13327 10.72205,14.81364 19.33666,27.41364 19.14359,28 -0.50255,1.52624 -11.54868,1.9308 -13.28873,0.48669 -0.78482,-0.65135 -9.5897,-12.71244 -19.5664,-26.80242 -9.97671,-14.08999 -18.32293,-25.83198 -18.54717,-26.09331 -0.22423,-0.26133 -4.99388,-0.34866 -10.59921,-0.19405 -13.11516,0.36174 -29.87706,-3.08593 -32.04319,-6.5908 -0.32771,-0.53024 0.15431,-2.87374 1.07115,-5.20779 1.60764,-4.09265 1.79359,-4.22308 5.22375,-3.66397 1.95622,0.31885 6.01734,1.26644 9.0247,2.10575 6.9704,1.94533 20.67406,1.93438 28.97918,-0.0231 19.15014,-4.51372 35.86738,-20.03507 42.83922,-39.774686 3.35987,-9.512916 4.17099,-25.93543 1.78357,-36.111536 C 202.07872,41.821787 187.79092,25.654505 168.5,17.887191 162.67499,15.541805 159.5903,14.990675 150.12295,14.603841 136.54325,14.048977 130.33022,15.203394 120,20.200866 110.05179,25.01353 97.070962,37.767057 91.806804,47.900374 c -6.930499,13.340965 -6.8068,11.778818 -6.8068,85.960086 0,44.04593 -0.351298,67.3278 -1.035184,68.60565 -1.273874,2.38026 -9.045932,2.74637 -10.899115,0.51342 z"
       id="path3733"
       inkscape:connector-curvature="0" />
    <path
       style="fill:#e7b19b"
       d="m 60.007648,301.08412 c -1.920795,-0.61165 -5.819554,-3.37821 -8.663907,-6.14792 -4.094367,-3.98691 -5.524965,-6.26193 -6.868284,-10.92233 -4.510998,-15.65007 6.118602,-30.51664 22.480447,-31.44117 11.062975,-0.62511 20.118538,4.62485 24.757698,14.35327 2.941843,6.16911 2.208123,6.4762 -15.432213,6.45909 -8.679762,-0.008 -16.456385,-0.45153 -17.281385,-0.98469 -1.006253,-0.65029 3.328254,-0.97441 13.168213,-0.98469 15.641627,-0.0163 17.831787,-0.35461 17.831787,-2.75426 0,-2.63925 -3.842631,-7.87999 -7.776873,-10.60642 -8.940667,-6.19589 -21.304039,-5.22393 -29.039368,2.28295 -5.208922,5.05509 -7.218128,8.9953 -7.885836,15.46477 -0.961719,9.31815 5.290889,19.43876 14.347231,23.22275 6.891784,2.87957 17.101601,1.53711 24.354846,-3.20234 1.59933,-1.04505 1.316416,-0.56801 -0.785286,1.32412 -5.505461,4.95647 -14.965429,6.56127 -23.20707,3.93687 z M 121.5,300.52944 c -4.8394,-2.21041 -9.92473,-7.2223 -12.8141,-12.62907 -3.2632,-6.10628 -2.99365,-16.59278 0.5834,-22.69655 3.10296,-5.2948 7.41976,-9.2117 12.60142,-11.43403 4.13972,-1.77546 15.64281,-2.25589 17.18113,-0.71757 0.70023,0.70023 -1.44353,0.99712 -6.76334,0.93666 -6.77251,-0.077 -8.394,0.26744 -12.43012,2.64012 -11.62507,6.83396 -15.41912,23.17539 -7.81719,33.66955 4.85921,6.70794 10.07782,9.51847 18.4599,9.94174 10.28919,0.51958 16.52925,-3.05837 22.3932,-12.83992 1.97637,-3.29674 2.09844,-4.90488 2.10196,-27.69098 0.002,-15.0445 0.38183,-24.42466 1.00374,-24.80902 0.65578,-0.40529 1,7.43024 1,22.76284 0,19.06182 -0.30343,24.2714 -1.64259,28.20161 -1.93518,5.67944 -7.78819,11.91971 -13.69594,14.60211 -5.44594,2.47273 -14.82097,2.50179 -20.16147,0.0625 z m 85.71981,-0.70682 c -15.38531,-7.66683 -19.01584,-26.64713 -7.53875,-39.41241 5.14591,-5.72349 10.70901,-8.17925 18.44484,-8.14225 7.02868,0.0336 12.20679,2.11457 17.2472,6.93124 4.87404,4.65769 8.47243,12.05057 6.47999,13.31313 -1.86888,1.18426 -32.00153,1.08461 -33.85309,-0.11196 -1.41944,-0.91731 13.60424,-1.6199 23.01834,-1.07645 4.33649,0.25033 8.98166,-1.41438 8.98166,-3.2188 0,-2.47705 -6.95586,-9.50497 -11.66269,-11.7835 -11.55199,-5.59223 -23.85351,-1.22852 -31.23161,11.07875 -2.63416,4.39399 -2.8936,14.53504 -0.49375,19.29966 4.52254,8.97896 12.15666,13.70034 22.15243,13.70034 5.90618,0 7.50075,-0.41646 11.6362,-3.03909 2.63568,-1.6715 4.61636,-2.459 4.40152,-1.75 -0.21484,0.709 -2.8139,2.52659 -5.77568,4.03909 -7.24304,3.69883 -14.61287,3.75704 -21.80661,0.17225 z M 175,277.45939 c 0,-15.37268 0.36104,-24.05902 1,-24.05902 0.63823,0 1,8.48033 1,23.44098 0,14.54864 -0.37935,23.67544 -1,24.05902 -0.65608,0.40548 -1,-7.65628 -1,-23.44098 z m -163.999996,9.307 c 0,-7.55794 0.524097,-15.38326 1.176017,-17.55918 2.403757,-8.02302 13.227838,-16.90788 20.389707,-16.73671 2.496847,0.0597 2.179707,0.32768 -2.12738,1.79779 -7.16055,2.44407 -11.053787,5.53288 -14.460413,11.47257 -2.910366,5.07443 -2.959318,5.40274 -2.968547,19.90951 -0.0058,9.16041 -0.388339,14.75 -1.009384,14.75 -0.617769,0 -1,-5.21133 -1,-13.63398 z m 246.603836,12.35685 c -0.46125,-0.97741 -0.65348,-7.50241 -0.42718,-14.5 0.35733,-11.0492 0.75152,-13.46045 2.99659,-18.32983 3.48446,-7.55753 12.39033,-14.0227 19.04463,-13.82536 2.16573,0.0642 2.18012,0.11159 0.28212,0.92866 -1.1,0.47354 -3.13707,1.10145 -4.52682,1.39536 -3.63938,0.76966 -10.68204,7.14053 -13.22749,11.96575 -1.8671,3.53929 -2.26673,6.32691 -2.74427,19.14255 -0.34387,9.2282 -0.88163,14.31619 -1.39758,13.22287 z M 175,237.34135 c 0,-2.45136 0.39607,-3.81423 1,-3.44098 0.55,0.33992 1,2.16648 1,4.05902 0,1.89254 -0.45,3.44098 -1,3.44098 -0.55,0 -1,-1.82656 -1,-4.05902 z M 73.43832,202.10022 c -0.297707,-0.77581 -0.386682,-32.18816 -0.197723,-69.80521 0.384939,-76.631619 0.03757,-72.739651 7.934035,-88.894636 3.437854,-7.033338 5.808681,-10.144791 13.740061,-18.032341 7.857307,-7.813887 11.229557,-10.36534 18.706037,-14.15303 12.67332,-6.42048 21.42188,-8.2156516 36.76194,-7.543411 20.39186,0.8936236 32.42405,6.2910289 47.11733,21.135919 9.85813,9.95985 14.38537,16.811446 18.02657,27.281705 12.20889,35.106658 -2.85509,71.716354 -36.77657,89.377404 -4.2625,2.21925 -7.75,4.2649 -7.75,4.54589 0,0.281 9.00255,12.94567 20.00566,28.14372 11.21752,15.49421 19.62661,28.01187 19.14279,28.49569 -0.47458,0.47458 -3.25638,0.72463 -6.18177,0.55566 l -5.31889,-0.30721 -18.81263,-26.4054 c -10.34695,-14.52298 -19.00226,-26.59503 -19.23403,-26.8268 -0.23176,-0.23176 -6.64933,-0.54033 -14.26126,-0.6857 -10.96406,-0.2094 -15.22088,-0.7146 -20.48599,-2.4313 -3.65536,-1.19185 -6.86961,-2.74941 -7.14277,-3.46126 -0.72991,-1.9021 1.96503,-7.68954 3.58065,-7.68954 0.76357,0 4.90728,0.9 9.20824,2 20.71003,5.29673 41.36338,0.30785 56.4144,-13.62708 13.71701,-12.69986 20.11148,-26.465489 20.84455,-44.872916 C 209.62358,57.189116 202.52676,40.776721 186.5,27.423472 175.33668,18.122363 161.97383,13.400374 146.81575,13.400374 c -18.16773,0 -29.78804,4.952231 -43.36699,18.481727 -9.060364,9.027373 -13.059799,15.113571 -17.09743,26.018273 -1.717264,4.637931 -1.887533,10.068969 -2.351326,74.999996 l -0.5,70 -4.7602,0.30521 c -3.39162,0.21746 -4.915821,-0.10034 -5.301484,-1.10536 z"
       id="path3731"
       inkscape:connector-curvature="0" />
    <path
       style="fill:#e16555"
       d="m 75.645701,202.13056 c -1.625589,-1.18865 -1.714371,-5.67789 -1.389314,-70.25 0.38724,-76.924741 0.0065,-72.550572 7.661531,-88.030366 C 90.513962,26.467407 108.56545,11.853178 128.14126,6.4284449 137.18204,3.9231164 154.34892,3.6935557 164,5.9489312 c 16.16705,3.7781017 32.66954,15.6980528 42.89137,30.9809548 16.95367,25.347851 15.8312,57.909013 -2.84715,82.591614 -6.24593,8.25371 -15.23257,15.6984 -25.25335,20.9203 -4.24002,2.20951 -7.98333,4.46095 -8.31846,5.00321 -0.33513,0.54225 8.19648,13.13662 18.95913,27.98748 C 200.19419,188.28335 209,200.82399 209,201.30058 c 0,1.27972 -3.89485,2.07082 -7.06942,1.43591 -2.27066,-0.45414 -6.22802,-5.41821 -21.87938,-27.44527 -10.50904,-14.78997 -19.65721,-26.92952 -20.32927,-26.97679 -0.67206,-0.0473 -5.94693,-0.0259 -11.72193,0.0474 -7.68474,0.0976 -12.616,-0.41434 -18.392,-1.90947 -9.85643,-2.55135 -10.78349,-3.25018 -9.43672,-7.11352 1.21632,-3.48915 1.32171,-3.49788 11.32872,-0.93852 14.28624,3.65381 29.92421,2.15826 43.09922,-4.12181 10.02295,-4.7776 23.49213,-18.48535 28.72703,-29.23586 5.31105,-10.906843 7.0002,-19.617355 6.33001,-32.642276 -0.57392,-11.153852 -1.96762,-16.840543 -6.19416,-25.27381 -8.15473,-16.271232 -24.50541,-29.183547 -42.2188,-33.340641 -10.11207,-2.373168 -26.63699,-1.484645 -35.4398,1.90555 -17.97989,6.92453 -32.320699,21.549654 -39.680678,40.46735 l -2.622818,6.741551 -0.288785,69.289496 -0.288785,69.28949 -2.526315,0.96051 c -3.101608,1.17923 -2.676913,1.20688 -4.750418,-0.30931 z"
       id="path3729"
       inkscape:connector-curvature="0" />
    <path
       style="fill:#e24935"
       d="m 75.40461,200.01237 c -0.292944,-0.7634 -0.365858,-31.4759 -0.16203,-68.25 0.413982,-74.689791 0.120163,-71.389364 7.741796,-86.962647 8.87222,-18.128609 28.864914,-33.71869 48.603184,-37.9002275 15.20806,-3.2218151 32.12314,-1.1479483 46.33996,5.6814945 6.94449,3.335978 10.02721,5.656004 17.518,13.183888 15.51419,15.591009 20.60533,26.974091 21.30523,47.635496 0.48671,14.368239 -0.95414,22.449611 -5.82065,32.646466 -7.38422,15.47224 -23.42254,30.31765 -39.1801,36.26594 -1.7783,0.67129 -2.75,1.76849 -2.75,3.10521 0,1.13692 8.54382,13.86056 18.98627,28.27475 10.44244,14.4142 18.99244,26.57229 19,27.018 0.008,0.4457 -1.5867,0.6707 -3.54279,0.5 -3.42335,-0.29875 -4.27606,-1.32113 -22.77268,-27.30377 l -19.21616,-26.99339 -13.47732,-0.11757 c -9.30797,-0.0812 -15.33348,-0.64057 -19.47732,-1.80817 -7.08343,-1.99589 -7.92672,-2.66762 -7.00293,-5.57823 0.53714,-1.69239 1.18665,-2.03873 2.84933,-1.51935 12.2413,3.8239 27.3468,4.61389 38.3983,2.00817 21.76638,-5.13207 41.43694,-25.20188 46.73773,-47.68635 1.92191,-8.152187 1.90611,-24.537854 -0.0316,-32.758818 -7.30926,-31.010709 -40.46968,-53.2320631 -71.67331,-48.029497 -15.03499,2.506776 -25.99849,8.298982 -37.01074,19.553402 -7.774369,7.945346 -13.015823,16.478708 -16.524106,26.902124 l -2.699712,8.021083 -0.328734,67.749996 -0.328733,67.75 h -2.47413 c -1.360772,0 -2.713812,-0.6246 -3.006755,-1.388 z"
       id="path3727"
       inkscape:connector-curvature="0" />
  </g>
</svg>
